<?xml version="1.0" encoding="UTF-8"?>
<svg id="Layer_1" data-name="Layer 1" xmlns="http://www.w3.org/2000/svg" xmlns:xlink="http://www.w3.org/1999/xlink" viewBox="0 0 242.0634661 93.3333333">
  <defs>
    <style>
      .cls-1 {
        fill: #0071bc;
        font-family: MonotypeCorsiva, 'Monotype Corsiva';
        font-size: 48px;
      }

      .cls-2 {
        fill: #29abe2;
        stroke: #29abe2;
        stroke-width: .5px;
      }

      .cls-2, .cls-3, .cls-4 {
        stroke-miterlimit: 10;
      }

      .cls-3 {
        fill: url(#radial-gradient);
        opacity: .05;
        stroke: #000;
        stroke-width: 2px;
      }

      .cls-5 {
        fill: url(#radial-gradient-2);
      }

      .cls-4 {
        fill: #f7931e;
        stroke: #f7931e;
      }
    </style>
    <radialGradient id="radial-gradient" cx="49.3061374" cy="-23.2325563" fx="49.3061374" fy="-23.2325563" r="35.4975303" gradientTransform="translate(-.7162017 112.2159934) scale(.9609933 2.8214427)" gradientUnits="userSpaceOnUse">
      <stop offset="0" stop-color="#008cbf"/>
      <stop offset=".1257063" stop-color="#0095c7"/>
      <stop offset=".3346475" stop-color="#00aedf"/>
      <stop offset=".55211" stop-color="#00d0ff"/>
      <stop offset=".865168" stop-color="#005155"/>
      <stop offset=".994382" stop-color="#00a2aa"/>
    </radialGradient>
    <radialGradient id="radial-gradient-2" cx="170.5079088" cy="63.6482879" fx="170.5079088" fy="63.6482879" r="52.3849787" gradientTransform="matrix(1, 0, 0, 1, 0, 0)" xlink:href="#radial-gradient"/>
  </defs>
  <rect class="cls-3" x="1" y="1" width="91.3333333" height="91.3333333" rx="45.666621" ry="45.666621"/>
  <path class="cls-4" d="m88.6466777,58.0000017c-1.1814423-.8391571-8.6442261,14.5867004-23.9733734,17.6235046-3.60466.7141113-8.6421051,1.1675415-14.5170898-.3465118-8.4482117-2.1772003-12.4433289-7.1131287-13.0700836-5.3520508-.7782135,2.1867371,3.8654022,4.4581909,2.9740753,7.4284821-.7717133,2.5716705-2.2518158,5.9182739-11.2158051,2.0661469-15.8701782-6.8199463-17.2933807-7.1031036-17.4457397-6.8833771-.5830078.8407898,11.8215332,17.0132751,32.5386047,18.3325195,3.1154175.1983948,11.9435883.3477936,20.5938263-3.6271057,18.7762604-8.6279449,25.4236145-28.3125305,24.1155853-29.2416077Z"/>
  <path class="cls-2" d="m46.1353903,23.4072402c-.1607546.0093624-.2677182.0885985-.2678342.088675-.000232.0001529-.000232.000172-.000232.000172-11.5773891,15.2457882-10.8417539,21.3857602-10.8417539,21.385894.1965638,1.6407256.7641356,6.3777761,4.6448307,9.8114518,3.560346,3.1502253,9.8458254,5.1697254,13.9402542,2.4321511,3.6188549-2.419617,3.9843716-7.1048114,4.210828-10.0078512,1.0922963-14.0019503-11.5068148-23.7209249-11.6860928-23.7104925Z"/>
  <path class="cls-5" d="m98.9523516,82.8361541c7.4107361-6.7588326,19.3120728-15.8389509,34.8888855-19.841968,17.7397461-4.5588476,29.5018311-1.6154553,43.3333435-.9600789,15.4414062.7316729,37.4494019-1.899106,64.8888855-17.5736854"/>
  <text class="cls-1" transform="translate(109.3849739 56.1891349)"><tspan x="0" y="0">watex</tspan></text>
</svg>