<?xml version="1.0" encoding="UTF-8"?>
<svg id="Layer_1" data-name="Layer 1" xmlns="http://www.w3.org/2000/svg" xmlns:xlink="http://www.w3.org/1999/xlink" viewBox="0 0 214.8747565 46.9554192">
  <defs>
    <style>
      .cls-1 {
        fill: #0d7ca3;
        font-family: LucidaCalligraphy-Italic, 'Lucida Calligraphy';
        font-size: 36px;
        font-style: italic;
      }

      .cls-2 {
        fill: #29abe2;
        stroke: #29abe2;
        stroke-width: .5px;
      }

      .cls-2, .cls-3, .cls-4 {
        stroke-miterlimit: 10;
      }

      .cls-3 {
        fill: url(#radial-gradient);
        opacity: .05;
        stroke: #000;
        stroke-width: 2px;
      }

      .cls-5 {
        fill: url(#radial-gradient-2);
        opacity: .18;
      }

      .cls-4 {
        fill: #f7931e;
        stroke: #f7931e;
      }
    </style>
    <radialGradient id="radial-gradient" cx="130.5746701" cy="-38.778612" fx="130.5746701" fy="-38.778612" r="35.4975303" gradientTransform="translate(-36.8650399 74.5709668) scale(.4559065 1.3385256)" gradientUnits="userSpaceOnUse">
      <stop offset="0" stop-color="#008cbf"/>
      <stop offset=".1257063" stop-color="#0095c7"/>
      <stop offset=".3346475" stop-color="#00aedf"/>
      <stop offset=".55211" stop-color="#00d0ff"/>
      <stop offset=".865168" stop-color="#005155"/>
      <stop offset=".994382" stop-color="#00a2aa"/>
    </radialGradient>
    <radialGradient id="radial-gradient-2" cx="129.6021814" cy="34.1901406" fx="129.6021814" fy="34.1901406" r="60.4021001" gradientTransform="matrix(1, 0, 0, 1, 0, 0)" xlink:href="#radial-gradient"/>
  </defs>
  <rect class="cls-3" x="1" y="1" width="43.3296063" height="43.3296062" rx="21.6647812" ry="21.6647812"/>
  <path class="cls-4" d="m43.2457851,28.0414704c-.57921-.398106-4.2378898,6.920102-11.7531071,8.3607976-1.7672088.3387828-4.23685.5538954-7.1171007-.1643893-4.1417924-1.0328894-6.1004254-3.3745518-6.4076962-2.5390758-.3815244,1.0374137,1.8950394,2.1150181,1.4580604,3.5241592-.3783376,1.2200307-1.1039678,2.8076987-5.4986237.9802043-7.7804613-3.2354626-8.4781959-3.3697958-8.5528909-3.2655549-.2858235.3988806,5.7955859,8.0712976,15.9522692,8.6971626,1.5273543.0941208,5.8554243.1649974,10.0962615-1.7207416,9.2051876-4.0931984,12.4640975-13.4317971,11.8228275-13.8725622Z"/>
  <path class="cls-2" d="m22.4043413,12.0609796c-.078811.0044416-.1312506.0420322-.1313075.0420684-.0001138.0000725-.0001138.0000816-.0001138.0000816-5.6758927,7.232781-5.3152426,10.1456559-5.3152426,10.1457193.0963667.7783795.3746226,3.0256919,2.2771594,4.654668,1.7454835,1.4945039,4.8269819,2.4525785,6.8343031,1.1538411,1.7741679-1.1478947,1.9533649-3.370606,2.0643867-4.7478422.5355056-6.6426897-5.6412932-11.2534854-5.7291854-11.2485362Z"/>
  <polyline class="cls-5" points="66.5785979 29.7043341 44.3296063 39.2315027 214.8747565 39.2315027 188.0969788 29.1487786"/>
  <text class="cls-1" transform="translate(63.7729338 35.2482392)"><tspan x="0" y="0">watex</tspan></text>
</svg>