<svg id="Layer_1" data-name="Layer 1" xmlns="http://www.w3.org/2000/svg" xmlns:xlink="http://www.w3.org/1999/xlink" viewBox="0 0 144.98 31.72"><defs><style>.cls-1{stroke:#000;stroke-width:2px;opacity:0.05;fill:url(#radial-gradient);}.cls-1,.cls-2,.cls-3{stroke-miterlimit:10;}.cls-2{fill:#f7931e;stroke:#f7931e;}.cls-3{fill:#29abe2;stroke:#29abe2;stroke-width:0.5px;}.cls-4{opacity:0.18;fill:url(#radial-gradient-2);}.cls-5{font-size:24.07px;fill:#0d7ca3;font-family:LucidaCalligraphy-Italic, Lucida Calligraphy;font-style:italic;}</style><radialGradient id="radial-gradient" cx="241.41" cy="-16.3" r="35.5" gradientTransform="translate(-58.51 30.07) scale(0.31 0.89)" gradientUnits="userSpaceOnUse"><stop offset="0" stop-color="#008cbf"/><stop offset="0.13" stop-color="#0095c8"/><stop offset="0.33" stop-color="#00afe0"/><stop offset="0.55" stop-color="#00d0ff"/><stop offset="0.87" stop-color="#005155"/><stop offset="0.99" stop-color="#00a2aa"/></radialGradient><radialGradient id="radial-gradient-2" cx="186.31" cy="59.93" r="60.4" gradientTransform="translate(-37.85 -16.88) scale(0.67 0.67)" xlink:href="#radial-gradient"/></defs><rect class="cls-1" x="1" y="1" width="29.17" height="28.97" rx="14.48"/><path class="cls-2" d="M75.46,40.36c-.39-.27-2.85,4.62-7.91,5.59a11.18,11.18,0,0,1-4.79-.11c-2.79-.7-4.11-2.26-4.31-1.7s1.27,1.41,1,2.35-.75,1.88-3.7.66C50.49,45,50,44.9,50,45c-.19.26,3.9,5.39,10.74,5.81a15.29,15.29,0,0,0,6.79-1.15C73.7,46.89,75.89,40.65,75.46,40.36Z" transform="translate(-46.02 -21.28)"/><path class="cls-3" d="M61.43,29.67l-.09,0h0c-3.82,4.84-3.57,6.78-3.57,6.78A4.7,4.7,0,0,0,59.3,39.6c1.17,1,3.25,1.63,4.6.77,1.19-.77,1.32-2.26,1.39-3.18C65.65,32.75,61.49,29.67,61.43,29.67Z" transform="translate(-46.02 -21.28)"/><polyline class="cls-4" points="45.15 20.19 30.17 26.56 144.98 26.56 126.95 19.82"/><text class="cls-5" transform="translate(43.26 23.9) scale(1.01 1)">watex</text></svg>