<svg id="Layer_1" data-name="Layer 1" xmlns="http://www.w3.org/2000/svg" xmlns:xlink="http://www.w3.org/1999/xlink" viewBox="0 0 245.22 67.44"><defs><style>.cls-1{stroke:#000;stroke-width:2px;opacity:0.05;fill:url(#radial-gradient);}.cls-1,.cls-2,.cls-3,.cls-4{stroke-miterlimit:10;}.cls-2{fill:#fff;stroke:#fff;}.cls-3{fill:#f7931e;stroke:#f7931e;}.cls-4{fill:#29abe2;stroke:#29abe2;stroke-width:0.5px;}.cls-5{font-size:36px;font-family:LucidaCalligraphy-Italic, Lucida Calligraphy;font-style:italic;}</style><radialGradient id="radial-gradient" cx="155.24" cy="-26.08" r="35.5" gradientTransform="translate(-34.26 65.38) scale(0.46 1.34)" gradientUnits="userSpaceOnUse"><stop offset="0" stop-color="#008cbf"/><stop offset="0.13" stop-color="#0095c8"/><stop offset="0.33" stop-color="#00afe0"/><stop offset="0.55" stop-color="#00d0ff"/><stop offset="0.87" stop-color="#005155"/><stop offset="0.99" stop-color="#00a2aa"/></radialGradient></defs><rect class="cls-1" x="14.85" y="8.81" width="43.33" height="43.33" rx="21.66"/><rect class="cls-2" x="0.5" y="0.5" width="244.22" height="66.44"/><path class="cls-3" d="M67.91,40.74c-.58-.4-4.24,6.92-11.75,8.36A16.33,16.33,0,0,1,49,48.93c-4.14-1-6.1-3.37-6.41-2.54-.38,1,1.9,2.12,1.46,3.53-.38,1.22-1.11,2.81-5.5,1-7.78-3.24-8.48-3.37-8.55-3.27-.29.4,5.79,8.07,16,8.7a22.57,22.57,0,0,0,10.1-1.72C65.29,50.52,68.55,41.18,67.91,40.74Z" transform="translate(-10.82 -4.89)"/><path class="cls-4" d="M47.07,24.76a.22.22,0,0,0-.13,0h0C41.26,32,41.62,34.94,41.62,34.94A7.06,7.06,0,0,0,43.9,39.6c1.74,1.49,4.82,2.45,6.83,1.15,1.78-1.14,2-3.37,2.07-4.74C53.33,29.36,47.15,24.75,47.07,24.76Z" transform="translate(-10.82 -4.89)"/><text class="cls-5" transform="translate(64.29 48.96)">watex</text></svg>