<?xml version="1.0" encoding="UTF-8"?>
<svg id="Layer_1" data-name="Layer 1" xmlns="http://www.w3.org/2000/svg" xmlns:xlink="http://www.w3.org/1999/xlink" viewBox="0 0 213.6701778 70.7218493">
  <defs>
    <style>
      .cls-1 {
        fill: #29abe2;
        stroke: #29abe2;
        stroke-width: .5px;
      }

      .cls-1, .cls-2, .cls-3 {
        stroke-miterlimit: 10;
      }

      .cls-2 {
        fill: url(#radial-gradient);
        opacity: .05;
        stroke: #000;
        stroke-width: 2px;
      }

      .cls-4 {
        fill: url(#radial-gradient-2);
      }

      .cls-5 {
        fill: #0d7ca3;
        font-family: LucidaHandwriting-Italic, 'Lucida Handwriting';
        font-size: 36px;
        font-style: italic;
      }

      .cls-3 {
        fill: #f7931e;
        stroke: #f7931e;
      }
    </style>
    <radialGradient id="radial-gradient" cx="49.3061374" cy="-22.4893091" fx="49.3061374" fy="-22.4893091" r="35.4975303" gradientTransform="translate(-.2385178 79.4769198) scale(.6935125 2.0291444)" gradientUnits="userSpaceOnUse">
      <stop offset="0" stop-color="#008cbf"/>
      <stop offset=".1257063" stop-color="#0095c7"/>
      <stop offset=".3346475" stop-color="#00aedf"/>
      <stop offset=".55211" stop-color="#00d0ff"/>
      <stop offset=".865168" stop-color="#005155"/>
      <stop offset=".994382" stop-color="#00a2aa"/>
    </radialGradient>
    <radialGradient id="radial-gradient-2" cx="144.8681993" cy="51.9142747" fx="144.8681993" fy="51.9142747" r="52.4602668" gradientTransform="translate(-5.3865653 7.2247644) rotate(-3.3649383)" xlink:href="#radial-gradient"/>
  </defs>
  <rect class="cls-2" x="1" y="1" width="65.9118114" height="65.6857288" rx="32.8428315" ry="32.8428315"/>
  <path class="cls-3" d="m64.2512915,41.9936495c-.8526022-.6035107-6.2382109,10.4905626-17.3006767,12.6745921-2.6013468.5135794-6.2366803.8396805-10.4764345-.2492067-6.0967548-1.5658138-8.9798797-5.1156683-9.4321849-3.8491243-.5616072,1.5726725,2.7895146,3.2062721,2.1462776,5.3424663-.5569163,1.8495115-1.6250503,4.2563446-8.0940222,1.4859456-11.4529072-4.9048154-12.4799787-5.1084585-12.5899304-4.950434-.4207347.6046849,8.5311533,12.2357231,23.4818801,13.1845063,2.2482789.1426829,8.6192358.2501286,14.8617854-2.6085666,13.5501168-6.2051042,18.3472608-20.3619985,17.4033056-21.0301786Z"/>
  <path class="cls-1" d="m33.5725037,17.7679461c-.1160105.0067333-.1932021.0637189-.1932858.0637739-.0001674.0001099-.0001674.0001237-.0001674.0001237-8.3549637,10.9645698-7.8240836,15.3803567-7.8240836,15.3804529.1418527,1.1799882.5514478,4.5868125,3.3519986,7.0562667,2.569367,2.2656005,7.1053597,3.7179984,10.0601541,1.749171,2.6115907-1.7401566,2.8753703-5.1096867,3.0387953-7.1975146.7882689-10.070018-8.304033-17.0597763-8.4334111-17.0522735Z"/>
  <path class="cls-4" d="m70.8896644,70.5898315c-.4629218-1.2072097,15.8380603-10.4184712,35.8278265-15.3435883,18.4366726-4.5424653,25.597429-1.8876357,43.2022814-3.5018999,36.484127-3.3453723,64.1732933-20.1062031,63.7455157-21.3520871-.1733723-.504992-16.5729299,4.1898646-49.3720154,13.5795607-31.391568,8.9867606-47.087352,13.4801409-60.9888156,17.5887307-26.0454714,7.6977851-32.1421504,9.7403065-32.4147925,9.0292839Z"/>
  <text class="cls-5" transform="translate(72.900431 49.5072712)"><tspan x="0" y="0">watex</tspan></text>
</svg>