<svg id="Layer_1" data-name="Layer 1" xmlns="http://www.w3.org/2000/svg" xmlns:xlink="http://www.w3.org/1999/xlink" viewBox="0 0 31.17 30.97"><defs><style>.cls-1{stroke:#010101;stroke-width:2px;opacity:0.05;fill:url(#radial-gradient);}.cls-1,.cls-2,.cls-3{stroke-miterlimit:10;}.cls-2{fill:#f79421;stroke:#f79421;}.cls-3{fill:#2baae2;stroke:#2baae2;stroke-width:0.5px;}</style><radialGradient id="radial-gradient" cx="644.14" cy="343.41" r="35.5" gradientTransform="translate(-182.11 -291.8) scale(0.31 0.89)" gradientUnits="userSpaceOnUse"><stop offset="0" stop-color="#078dc0"/><stop offset="0.14" stop-color="#0f96c9"/><stop offset="0.38" stop-color="#26b0e0"/><stop offset="0.55" stop-color="#3ac6f4"/><stop offset="0.87" stop-color="#015255"/><stop offset="0.99" stop-color="#06a2aa"/></radialGradient></defs><rect class="cls-1" x="1" y="1" width="29.17" height="28.97" rx="14.48"/><path class="cls-2" d="M320.35,400.09c-.39-.26-2.85,4.63-7.91,5.59a11,11,0,0,1-4.79-.11c-2.79-.69-4.11-2.25-4.31-1.69s1.27,1.41,1,2.35-.74,1.88-3.7.66c-5.24-2.17-5.71-2.26-5.76-2.19-.19.27,3.9,5.4,10.74,5.82a15.35,15.35,0,0,0,6.8-1.15C318.59,406.63,320.79,400.39,320.35,400.09Z" transform="translate(-290.92 -381.02)"/><path class="cls-3" d="M306.32,389.41a.12.12,0,0,0-.08,0h0c-3.82,4.83-3.58,6.78-3.58,6.78a4.68,4.68,0,0,0,1.53,3.11c1.18,1,3.25,1.64,4.6.77,1.2-.76,1.32-2.25,1.39-3.17C310.54,392.49,306.38,389.41,306.32,389.41Z" transform="translate(-290.92 -381.02)"/></svg>