<svg id="Layer_1" data-name="Layer 1" xmlns="http://www.w3.org/2000/svg" xmlns:xlink="http://www.w3.org/1999/xlink" viewBox="0 0 1349.87 654.85"><defs><style>.cls-1,.cls-10,.cls-11,.cls-12,.cls-13,.cls-15,.cls-16,.cls-19,.cls-2,.cls-20,.cls-21,.cls-23,.cls-24,.cls-26,.cls-27,.cls-3,.cls-30,.cls-31,.cls-40,.cls-42,.cls-59,.cls-8,.cls-9{fill:none;}.cls-1,.cls-2,.cls-21,.cls-29,.cls-3,.cls-33,.cls-34,.cls-35,.cls-4,.cls-40,.cls-42,.cls-60{stroke:#010101;}.cls-1,.cls-10,.cls-11,.cls-12,.cls-13,.cls-15,.cls-16,.cls-19,.cls-2,.cls-20,.cls-21,.cls-23,.cls-24,.cls-26,.cls-27,.cls-29,.cls-3,.cls-31,.cls-33,.cls-34,.cls-35,.cls-4,.cls-40,.cls-42,.cls-43,.cls-44,.cls-45,.cls-46,.cls-47,.cls-48,.cls-49,.cls-50,.cls-51,.cls-52,.cls-53,.cls-54,.cls-55,.cls-56,.cls-57,.cls-58,.cls-59,.cls-60,.cls-61,.cls-62,.cls-8,.cls-9{stroke-miterlimit:10;}.cls-1,.cls-10,.cls-11,.cls-12,.cls-13,.cls-2,.cls-3,.cls-43,.cls-44,.cls-45,.cls-46,.cls-47,.cls-48,.cls-49,.cls-50,.cls-51,.cls-52,.cls-53,.cls-54,.cls-55,.cls-56,.cls-57,.cls-58,.cls-8,.cls-9{stroke-width:3px;}.cls-1{stroke-dasharray:2 2;}.cls-2{stroke-dasharray:2 2;}.cls-3{stroke-dasharray:2 2;}.cls-29,.cls-4{fill:#fff;}.cls-21,.cls-31,.cls-33,.cls-34,.cls-4,.cls-60{stroke-width:2px;}.cls-5{font-size:23.65px;}.cls-32,.cls-5{fill:#412312;}.cls-32,.cls-39,.cls-5{font-family:TimesNewRomanPS-BoldItalicMT, Times New Roman;font-weight:700;}.cls-32,.cls-38,.cls-39,.cls-5,.cls-64{font-style:italic;}.cls-6{letter-spacing:-0.06em;}.cls-14,.cls-25,.cls-36,.cls-38,.cls-7{font-size:15.77px;}.cls-22,.cls-36,.cls-38,.cls-39,.cls-7{fill:#010101;}.cls-14,.cls-7{font-family:TimesNewRomanPSMT, Times New Roman;}.cls-10,.cls-8,.cls-9{stroke:#c1282d;}.cls-9{stroke-dasharray:2 2;}.cls-10{stroke-dasharray:2 2;}.cls-11,.cls-12,.cls-13{stroke:#1c75bc;}.cls-12{stroke-dasharray:2 2;}.cls-13{stroke-dasharray:2.01 2.01;}.cls-14,.cls-17,.cls-25{fill:#1d1d1b;}.cls-15,.cls-16,.cls-19,.cls-20,.cls-23,.cls-24,.cls-59{stroke:#1d1d1b;}.cls-16{stroke-dasharray:2.03 2.03;}.cls-18{fill:#ccc;opacity:0.33;}.cls-19{stroke-dasharray:2.01 2.01;}.cls-20{stroke-dasharray:2.06 2.06;}.cls-23{stroke-dasharray:2.03 2.03;}.cls-24{stroke-dasharray:2 2;}.cls-25,.cls-36{font-family:Candara;}.cls-26,.cls-27,.cls-31{stroke:#020202;}.cls-27{stroke-dasharray:2.03 2.03;}.cls-28{fill:#020202;}.cls-29,.cls-35,.cls-59{stroke-dasharray:2 2;}.cls-32{font-size:26.66px;}.cls-33{fill:#f3f3f3;}.cls-34{opacity:0.22;fill:url(#radial-gradient);}.cls-35{stroke-width:4px;opacity:0.43;fill:url(#radial-gradient-2);}.cls-37{letter-spacing:-0.02em;}.cls-38{font-family:TimesNewRomanPS-ItalicMT, Times New Roman;}.cls-39,.cls-64{font-size:36px;}.cls-41{letter-spacing:-0.04em;}.cls-42{stroke-dasharray:1.97 1.97;}.cls-43,.cls-44,.cls-47,.cls-48,.cls-49,.cls-50,.cls-51,.cls-61{stroke:#f79421;}.cls-43,.cls-44,.cls-45,.cls-46,.cls-47,.cls-48,.cls-49,.cls-50,.cls-51{opacity:0.5;}.cls-43{fill:url(#Gold_Dust);}.cls-44{fill:url(#Gold_Dust-2);}.cls-45{fill:url(#radial-gradient-3);stroke:url(#White_Black_2);}.cls-46{fill:url(#radial-gradient-4);stroke:url(#White_Black_2-2);}.cls-47{fill:url(#Gold_Dust-3);}.cls-48{fill:url(#Gold_Dust-4);}.cls-49{fill:url(#Gold_Dust-5);}.cls-50{fill:url(#Gold_Dust-6);}.cls-51{fill:url(#Gold_Dust-7);}.cls-52,.cls-53,.cls-54,.cls-55,.cls-56,.cls-57,.cls-58{stroke:#70cddd;opacity:0.49;}.cls-52{fill:url(#radial-gradient-5);}.cls-53{fill:url(#radial-gradient-6);}.cls-54{fill:url(#radial-gradient-7);}.cls-55{fill:url(#radial-gradient-8);}.cls-56{fill:url(#radial-gradient-9);}.cls-57{fill:url(#radial-gradient-10);}.cls-58{fill:url(#radial-gradient-11);}.cls-60{opacity:0.05;fill:url(#radial-gradient-12);}.cls-61{fill:#f79421;}.cls-62{fill:#2baae2;stroke:#2baae2;stroke-width:0.5px;}.cls-63{opacity:0.18;fill:url(#radial-gradient-13);}.cls-64{fill:#117ca3;font-family:LucidaCalligraphy-Italic, Lucida Calligraphy;}</style><radialGradient id="radial-gradient" cx="605.07" cy="48.81" r="35.5" gradientTransform="translate(-1133.5 -54.72) scale(3 1.71)" gradientUnits="userSpaceOnUse"><stop offset="0" stop-color="#078dc0"/><stop offset="0.14" stop-color="#0f96c9"/><stop offset="0.38" stop-color="#26b0e0"/><stop offset="0.55" stop-color="#3ac6f4"/><stop offset="0.87" stop-color="#015255"/><stop offset="0.99" stop-color="#06a2aa"/></radialGradient><radialGradient id="radial-gradient-2" cx="599.05" cy="-545.47" r="35.5" gradientTransform="translate(-411.2 446.24) scale(3 0.17)" xlink:href="#radial-gradient"/><linearGradient id="Gold_Dust" x1="588.8" y1="509.82" x2="601.49" y2="509.82" gradientUnits="userSpaceOnUse"><stop offset="0" stop-color="#f47421"/><stop offset="0.18" stop-color="#f17d22"/><stop offset="0.47" stop-color="#e89723"/><stop offset="0.55" stop-color="#e59f24"/><stop offset="0.87" stop-color="#e4c520"/><stop offset="0.99" stop-color="#be7129"/></linearGradient><linearGradient id="Gold_Dust-2" x1="785.24" y1="645.01" x2="797.93" y2="645.01" xlink:href="#Gold_Dust"/><radialGradient id="radial-gradient-3" cx="654.36" cy="112.79" r="4.29" gradientTransform="translate(-116.37 -34.08) scale(1.48 1.31)" gradientUnits="userSpaceOnUse"><stop offset="0" stop-color="#fff"/><stop offset="1" stop-color="#010101"/></radialGradient><linearGradient id="White_Black_2" x1="844.79" y1="114.13" x2="860.49" y2="114.13" gradientTransform="matrix(1, 0, 0, 1, 0, 0)" xlink:href="#radial-gradient-3"/><radialGradient id="radial-gradient-4" cx="321.87" cy="556.54" r="4.29" gradientTransform="translate(1.58 -14.63) scale(1.34 1.19)" xlink:href="#radial-gradient-3"/><linearGradient id="White_Black_2-2" x1="424.22" y1="644.94" x2="438.67" y2="644.94" gradientTransform="matrix(1, 0, 0, 1, 0, 0)" xlink:href="#radial-gradient-3"/><linearGradient id="Gold_Dust-3" x1="1234.51" y1="347.75" x2="1247.2" y2="347.75" xlink:href="#Gold_Dust"/><linearGradient id="Gold_Dust-4" x1="591.76" y1="192.21" x2="604.45" y2="192.21" xlink:href="#Gold_Dust"/><linearGradient id="Gold_Dust-5" x1="592.9" y1="302.56" x2="605.6" y2="302.56" xlink:href="#Gold_Dust"/><linearGradient id="Gold_Dust-6" x1="1040.83" y1="272.89" x2="1053.52" y2="272.89" xlink:href="#Gold_Dust"/><linearGradient id="Gold_Dust-7" x1="1231.83" y1="273.39" x2="1244.52" y2="273.39" xlink:href="#Gold_Dust"/><radialGradient id="radial-gradient-5" cx="-1836.38" cy="295.89" r="35.5" gradientTransform="translate(693.3 159.97) scale(0.19 0.49)" xlink:href="#radial-gradient"/><radialGradient id="radial-gradient-6" cx="-506.63" cy="499.33" r="35.5" gradientTransform="translate(693.3 159.97) scale(0.19 0.49)" xlink:href="#radial-gradient"/><radialGradient id="radial-gradient-7" cx="1857.51" cy="388.14" r="35.5" gradientTransform="translate(693.3 159.97) scale(0.19 0.49)" xlink:href="#radial-gradient"/><radialGradient id="radial-gradient-8" cx="2389.71" cy="144.29" r="35.5" gradientTransform="translate(693.3 159.97) scale(0.19 0.49)" xlink:href="#radial-gradient"/><radialGradient id="radial-gradient-9" cx="2437.23" cy="483.14" r="35.5" gradientTransform="translate(693.3 159.97) scale(0.19 0.49)" xlink:href="#radial-gradient"/><radialGradient id="radial-gradient-10" cx="-12.13" cy="982.22" r="35.5" gradientTransform="translate(693.3 159.97) scale(0.19 0.49)" xlink:href="#radial-gradient"/><radialGradient id="radial-gradient-11" cx="-1855.5" cy="-88.84" r="35.5" gradientTransform="translate(693.3 159.97) scale(0.19 0.49)" xlink:href="#radial-gradient"/><radialGradient id="radial-gradient-12" cx="811.26" cy="71.23" r="35.5" gradientTransform="translate(225.74 -69.42) scale(0.46 1.34)" xlink:href="#radial-gradient"/><radialGradient id="radial-gradient-13" cx="710.25" cy="40.84" r="60.4" gradientTransform="matrix(1, 0, 0, 1, 0, 0)" xlink:href="#radial-gradient"/><image id="image" width="118" height="72" xlink:href="../../papers/written%20papers/joss/Bandicam/hardware.PNG"/></defs><rect class="cls-1" x="217.19" y="77.57" width="485.07" height="459.33" rx="14.98"/><rect class="cls-2" x="1.5" y="88.43" width="195.37" height="475.87" rx="14.98"/><rect class="cls-3" x="710.97" y="78.9" width="562.97" height="431.88" rx="14.98"/><rect class="cls-4" x="484.27" y="185.77" width="124.16" height="26.88"/><image width="105" height="94" transform="translate(1040.18 147.18) scale(0.25 0.23)" xlink:href="../../papers/written%20papers/joss/Bandicam/visualization.PNG"/><text class="cls-5" transform="translate(1028.05 109.06) scale(1.13 1)"><tspan class="cls-6">V</tspan><tspan x="14.47" y="0">iew space </tspan></text><text class="cls-7" transform="translate(372.18 479.05) scale(1.13 1)">database </text><polyline class="cls-8" points="928.49 494.33 928.49 495.33 927.49 495.33"/><line class="cls-9" x1="925.49" y1="495.33" x2="722.6" y2="495.33"/><polyline class="cls-8" points="721.61 495.33 720.61 495.33 720.61 494.33"/><line class="cls-10" x1="720.61" y1="492.33" x2="720.61" y2="93.72"/><polyline class="cls-8" points="720.61 92.72 720.61 91.72 721.61 91.72"/><line class="cls-9" x1="723.6" y1="91.72" x2="926.49" y2="91.72"/><polyline class="cls-8" points="927.49 91.72 928.49 91.72 928.49 92.72"/><line class="cls-10" x1="928.49" y1="94.72" x2="928.49" y2="493.33"/><polyline class="cls-11" points="1264.87 457.51 1264.87 458.51 1263.87 458.51"/><line class="cls-12" x1="1261.87" y1="458.52" x2="935.05" y2="458.52"/><polyline class="cls-11" points="934.05 458.51 933.05 458.51 933.05 457.51"/><line class="cls-13" x1="933.06" y1="455.51" x2="933.06" y2="147.31"/><polyline class="cls-11" points="933.05 146.31 933.05 145.31 934.05 145.31"/><line class="cls-12" x1="936.05" y1="145.31" x2="1262.87" y2="145.31"/><polyline class="cls-11" points="1263.87 145.31 1264.87 145.31 1264.87 146.31"/><line class="cls-13" x1="1264.87" y1="148.32" x2="1264.87" y2="456.51"/><rect class="cls-4" x="240.1" y="297.23" width="116.58" height="22.99"/><rect class="cls-4" x="483.72" y="501.25" width="120.73" height="25.13"/><text class="cls-14" transform="translate(515.19 203.17) scale(1.13 1)">methods</text><text class="cls-14" transform="translate(514.27 516.77) scale(1.13 1)">geology</text><rect class="cls-4" x="1133.02" y="338.76" width="117.32" height="25.13"/><text class="cls-14" transform="translate(1164.85 354.7) scale(1.13 1)">models</text><line class="cls-15" x1="478.98" y1="310.69" x2="477.98" y2="310.69"/><line class="cls-16" x1="475.96" y1="310.69" x2="375.7" y2="310.69"/><line class="cls-15" x1="374.69" y1="310.69" x2="373.69" y2="310.69"/><polygon class="cls-17" points="375.67 307.78 364.83 310.69 375.67 313.59 375.67 307.78"/><text class="cls-14" transform="translate(273.8 311.49) scale(1.13 1)">EM</text><rect class="cls-4" x="741.24" y="301.97" width="116.58" height="22.99"/><rect class="cls-4" x="1131.68" y="264.55" width="116.58" height="22.99"/><rect class="cls-4" x="1037.92" y="222.3" width="116.58" height="22.99"/><rect class="cls-4" x="941.54" y="337.95" width="116.58" height="22.99"/><rect class="cls-4" x="1048.27" y="389.19" width="116.58" height="22.99"/><rect class="cls-4" x="940.5" y="264.94" width="116.58" height="22.99"/><text class="cls-14" transform="translate(744.54 317.4) scale(1.13 1)">predictor [X, y]</text><rect class="cls-18" x="363.99" y="464.89" width="77.96" height="17.92" rx="6.8"/><line class="cls-15" x1="539.22" y1="226.51" x2="539.22" y2="227.51"/><line class="cls-19" x1="539.22" y1="229.52" x2="539.22" y2="288.67"/><line class="cls-15" x1="539.22" y1="289.68" x2="539.22" y2="290.68"/><polygon class="cls-17" points="536.32 228.49 539.22 217.65 542.13 228.49 536.32 228.49"/><line class="cls-15" x1="539.22" y1="326.76" x2="539.22" y2="327.76"/><line class="cls-20" x1="539.22" y1="329.81" x2="539.22" y2="386.34"/><line class="cls-15" x1="539.22" y1="387.36" x2="539.22" y2="388.36"/><polygon class="cls-17" points="536.32 386.38 539.22 397.22 542.13 386.38 536.32 386.38"/><path class="cls-21" d="M370.48,314.48a205.2,205.2,0,0,1,52.67-51.17c38.66-26.09,78.94-35,105-38.21" transform="translate(-65.13 -21.5)"/><path class="cls-22" d="M524.61,225.58l-5.07-6.73.22-.19,12.16,3.48,12.49,1.48-12,3.9-11.23,5.81-.26-.1Z" transform="translate(-65.13 -21.5)"/><path class="cls-21" d="M681,223.21c24.36,2.87,72.81,11.71,119.27,44.09a226.39,226.39,0,0,1,43.51,39.53" transform="translate(-65.13 -21.5)"/><path class="cls-22" d="M841.4,304.11l2.9-7.92.28.09,3.68,12.1,5.55,11.28L844,311.75l-11-6.28-.06-.27Z" transform="translate(-65.13 -21.5)"/><line class="cls-15" x1="729.31" y1="310.69" x2="728.31" y2="310.69"/><line class="cls-23" x1="726.27" y1="310.69" x2="617.45" y2="310.69"/><line class="cls-15" x1="616.44" y1="310.69" x2="615.44" y2="310.69"/><polygon class="cls-17" points="727.33 307.78 738.17 310.69 727.33 313.59 727.33 307.78"/><line class="cls-15" x1="875.32" y1="320.21" x2="876.32" y2="320.21"/><line class="cls-24" x1="878.32" y1="320.21" x2="1169.91" y2="320.21"/><line class="cls-15" x1="1170.91" y1="320.21" x2="1171.91" y2="320.21"/><polygon class="cls-17" points="1169.93 323.12 1180.77 320.21 1169.93 317.31 1169.93 323.12"/><path class="cls-21" d="M848.9,366.56c-4.52,23-16.46,59.84-49.53,94.56-46.59,48.92-105.37,62.37-124,66" transform="translate(-65.13 -21.5)"/><path class="cls-22" d="M848.21,370.09l6.43,5.45.2-.22L852.06,363q-.37-6.28-.76-12.55-2.29,5.85-4.58,11.71L840.28,373l.09.26Z" transform="translate(-65.13 -21.5)"/><text class="cls-25" transform="translate(334.8 217.49) scale(1.13 1)">*.EDI-o</text><path class="cls-21" d="M420.5,145.65a219.3,219.3,0,0,1,72.86,17.47,202,202,0,0,1,42.54,25" transform="translate(-65.13 -21.5)"/><path class="cls-22" d="M533,185.91l1.19-8.35.3,0,6.1,11.07,7.77,9.89q-5.61-2.85-11.2-5.72l-12-3.86-.11-.25Z" transform="translate(-65.13 -21.5)"/><text class="cls-25" transform="translate(395.29 113.7) scale(1.13 1)">*.</text><line class="cls-26" x1="538.76" y1="426.51" x2="538.76" y2="427.51"/><line class="cls-27" x1="538.76" y1="429.54" x2="538.76" y2="481.31"/><line class="cls-26" x1="538.76" y1="482.33" x2="538.76" y2="483.33"/><path class="cls-28" d="M603.89,503l3.6-2.19.08.12-2.33,5.88L603.89,513q-.67-3.08-1.36-6.14L600.2,501l.06-.12Z" transform="translate(-65.13 -21.5)"/><rect class="cls-29" x="78.39" y="100.91" width="101.2" height="153.26"/><rect class="cls-29" x="82.83" y="280.25" width="101.2" height="65.29"/><rect class="cls-29" x="77.69" y="384.5" width="111.48" height="158.61"/><path class="cls-30" d="M623.91,504.86" transform="translate(-65.13 -21.5)"/><line class="cls-26" x1="210.92" y1="505.24" x2="463.82" y2="505.24"/><path class="cls-28" d="M276.23,530.5a3.76,3.76,0,1,1,3.76-3.76A3.76,3.76,0,0,1,276.23,530.5Z" transform="translate(-65.13 -21.5)"/><polygon class="cls-28" points="461.84 508.15 472.68 505.24 461.84 502.34 461.84 508.15"/><image width="137" height="104" transform="translate(467.1 453.44) scale(0.26 0.35)" xlink:href="../../papers/written%20papers/joss/Bandicam/hardware3.PNG"/><image width="113" height="86" transform="translate(393.84 461.18) scale(0.24 0.24)" xlink:href="../../papers/written%20papers/joss/Bandicam/hardware%205.PNG"/><path class="cls-30" d="M612.2,235.05" transform="translate(-65.13 -21.5)"/><path class="cls-30" d="M623.91,513.1" transform="translate(-65.13 -21.5)"/><line class="cls-31" x1="553.82" y1="229.86" x2="553.82" y2="389.52"/><path class="cls-28" d="M619,255l7.2,4.38.16-.25-4.66-11.75L619,235.05q-1.37,6.13-2.71,12.28l-4.66,11.75.12.25Z" transform="translate(-65.13 -21.5)"/><path class="cls-30" d="M619,235.05" transform="translate(-65.13 -21.5)"/><rect class="cls-4" x="483.43" y="397.22" width="124.57" height="25.22"/><rect class="cls-4" x="598.76" y="269.29" width="26.88" height="121.85" transform="translate(877.29 -303.48) rotate(90)"/><text class="cls-14" transform="translate(529.07 312.9) scale(1.13 1)">utils </text><text x="-65.13" y="-21.5"/><text class="cls-7" transform="translate(92.15 405.9) scale(1.13 1)">(borehole, + <tspan x="-7.16" y="18.92" xml:space="preserve">logging data )  </tspan></text><text class="cls-7" transform="translate(80.51 505.57) scale(1.13 1)">*.xlsx/ *.dat/<tspan x="-0.44" y="18.92">*.json /*.yml</tspan></text><text class="cls-7" transform="translate(110.73 297.23) scale(1.13 1)">*.edi -<tspan x="-14.24" y="18.92">MTpy-obj </tspan><tspan x="-18.83" y="37.84">pycsamt-obj</tspan></text><text class="cls-7" transform="translate(83.57 126.39) scale(1.13 1)">*.csv/*.xlxs<tspan x="-3.95" y="18.92">*.html/*.json</tspan><tspan x="0.87" y="37.84">*.sas/*.spss</tspan><tspan x="19.49" y="56.77">*.xml</tspan><tspan x="4.82" y="75.69">or Pandas </tspan><tspan x="4.18" y="94.61">data frame</tspan></text><text x="-65.13" y="-21.5"/><text class="cls-7" transform="translate(260.54 477.92) scale(1.13 1)">sanitizer </text><line class="cls-15" x1="472.68" y1="510.77" x2="434.31" y2="510.77"/><polygon class="cls-17" points="436.29 507.87 425.45 510.77 436.29 513.68 436.29 507.87"/><text class="cls-5" transform="translate(515.19 109.06) scale(1.13 1)">Methods space </text><text class="cls-5" transform="translate(1051.68 175.06) scale(1.13 1)">Learning<tspan x="12.5" y="28.38" xml:space="preserve"> space </tspan></text><text class="cls-32" transform="matrix(0.01, -0.89, 1, 0.01, 63.6, 362.65)">Data space </text><text class="cls-5" transform="translate(792.95 185.77) scale(1.13 1)">Params<tspan x="4.61" y="28.38" xml:space="preserve"> space </tspan></text><rect class="cls-33" x="741.24" y="106.38" width="121.07" height="21.36"/><text class="cls-14" transform="translate(767.67 121) scale(1.13 1)">Modeling</text><rect class="cls-34" x="539.42" y="1" width="285.17" height="55.29" rx="12.4"/><rect class="cls-35" x="1243.67" y="324.86" width="285.17" height="53.49" transform="translate(1672.73 -1056.14) rotate(90)"/><line class="cls-26" x1="207.83" y1="308.72" x2="232.05" y2="308.72"/><path class="cls-28" d="M273.15,334a3.76,3.76,0,1,1,3.76-3.76A3.76,3.76,0,0,1,273.15,334Z" transform="translate(-65.13 -21.5)"/><polygon class="cls-28" points="230.07 311.62 240.91 308.72 230.07 305.81 230.07 311.62"/><line class="cls-26" x1="208.07" y1="411.64" x2="463.7" y2="411.64"/><path class="cls-28" d="M273.39,436.9a3.76,3.76,0,1,1,3.76-3.76A3.76,3.76,0,0,1,273.39,436.9Z" transform="translate(-65.13 -21.5)"/><polygon class="cls-28" points="461.72 414.55 472.56 411.64 461.72 408.74 461.72 414.55"/><line class="cls-26" x1="206.35" y1="117.06" x2="222.74" y2="117.06"/><path class="cls-28" d="M271.67,142.31a3.76,3.76,0,1,1,3.76-3.75A3.75,3.75,0,0,1,271.67,142.31Z" transform="translate(-65.13 -21.5)"/><polygon class="cls-28" points="220.76 119.96 231.6 117.06 220.76 114.15 220.76 119.96"/><text class="cls-36" transform="translate(410.76 113.7) scale(1.13 1)">ERP<tspan class="cls-37" x="26.47" y="0">-</tspan><tspan x="30.21" y="0">VES-o</tspan></text><image width="130" height="108" transform="translate(532.59 301.55) scale(0.19 0.2)" xlink:href="../../papers/written%20papers/joss/Bandicam/hardware4.PNG"/><rect class="cls-4" x="234.56" y="108.19" width="116.58" height="22.99"/><text class="cls-14" transform="translate(243.73 123.56) scale(1.13 1)">DC-resistivity</text><path class="cls-21" d="M680.56,212.21a355.92,355.92,0,0,0,101.05-17.07,342.4,342.4,0,0,0,69.62-31.43" transform="translate(-65.13 -21.5)"/><path class="cls-22" d="M848.14,165.54l-7.53-3.8.13-.27,12.44-2.24L865,155l-9,8.78L848.52,174l-.27,0Z" transform="translate(-65.13 -21.5)"/><text class="cls-14" transform="translate(1167.6 280.25) scale(1.13 1)">cases</text><text class="cls-14" transform="translate(1073.2 239.09) scale(1.13 1)">base</text><text class="cls-14" transform="translate(1065.57 404.58) scale(1.13 1)">metrics</text><text class="cls-14" transform="translate(952.16 355.48) scale(1.13 1)">transformers</text><text class="cls-14" transform="translate(966.86 279.96) scale(1.13 1)">analysis</text><text class="cls-14" transform="translate(493.53 411.64) scale(1.13 1)">hydrogeology</text><text class="cls-7" transform="translate(90 479.05) scale(1.13 1)"><tspan xml:space="preserve">Geological  </tspan></text><text class="cls-38" transform="translate(130.96 458.28) scale(1.13 1)">&amp;</text><use transform="translate(469.84 177.69) scale(0.26 0.31)" xlink:href="#image"/><use transform="translate(439.56 256.54) scale(0.26 0.31)" xlink:href="#image"/><text class="cls-39" transform="matrix(0, -1.01, 1, 0, 1332.7, 406.68)">Prediction</text><line class="cls-40" x1="217.22" y1="592.67" x2="260.22" y2="592.67"/><polygon class="cls-22" points="258.24 595.58 269.08 592.67 258.24 589.77 258.24 595.58"/><line class="cls-40" x1="226.08" y1="600.61" x2="269.08" y2="600.61"/><polygon class="cls-22" points="228.06 603.51 217.22 600.61 228.06 597.7 228.06 603.51"/><text class="cls-7" transform="translate(276.61 600.67) scale(1.13 1)">SQ<tspan class="cls-41" x="20.16" y="0">L</tspan><tspan x="29.2" y="0" xml:space="preserve"> request interface </tspan></text><line class="cls-40" x1="682.61" y1="596.46" x2="683.61" y2="596.46"/><line class="cls-42" x1="685.58" y1="596.46" x2="712.22" y2="596.46"/><line class="cls-40" x1="713.21" y1="596.46" x2="714.21" y2="596.46"/><polygon class="cls-22" points="712.22 599.37 723.07 596.46 712.22 593.56 712.22 599.37"/><text class="cls-7" transform="translate(724.75 600.49) scale(1.13 1)"><tspan xml:space="preserve">utilities/control data, feature &amp; parameter  transfer </tspan></text><text class="cls-7" transform="translate(1156.64 599.75) scale(1.13 1)"><tspan xml:space="preserve">features enginerring  </tspan></text><line class="cls-21" x1="446.97" y1="598.3" x2="506.67" y2="598.3"/><path class="cls-22" d="M568.21,619.8l-4.38-7.2.24-.17,11.75,4.67,12.28,2.7-12.28,2.71-11.75,4.66-.24-.12Z" transform="translate(-65.13 -21.5)"/><text class="cls-7" transform="translate(527.79 600.29) scale(1.13 1)">structural flowchart</text><rect class="cls-18" x="250.04" y="464.89" width="77.96" height="17.92" rx="6.8"/><rect class="cls-43" x="588.8" y="504.19" width="12.69" height="11.26"/><rect class="cls-44" x="785.24" y="639.38" width="12.69" height="11.26"/><rect class="cls-45" x="846.29" y="108.49" width="12.69" height="11.26"/><rect class="cls-46" x="425.72" y="639.86" width="11.45" height="10.16"/><rect class="cls-47" x="1234.51" y="342.12" width="12.69" height="11.26"/><rect class="cls-48" x="591.76" y="186.58" width="12.69" height="11.26"/><rect class="cls-49" x="592.9" y="296.93" width="12.69" height="11.26"/><rect class="cls-50" x="1040.83" y="267.26" width="12.69" height="11.26"/><rect class="cls-51" x="1231.83" y="267.75" width="12.69" height="11.26"/><rect class="cls-52" x="336.8" y="297.87" width="17.98" height="15.96" rx="6.06"/><rect class="cls-53" x="588.43" y="398.16" width="17.98" height="15.96" rx="6.06"/><rect class="cls-54" x="1035.8" y="343.35" width="17.98" height="15.96" rx="6.06"/><rect class="cls-55" x="1136.51" y="223.13" width="17.98" height="15.96" rx="6.06"/><rect class="cls-56" x="1145.51" y="390.18" width="17.98" height="15.96" rx="6.06"/><rect class="cls-57" x="682.01" y="636.23" width="17.98" height="15.96" rx="6.06"/><rect class="cls-58" x="333.18" y="108.2" width="17.98" height="15.96" rx="6.06"/><text class="cls-7" transform="translate(805.15 650.01) scale(1.13 1)">sub-packages</text><text class="cls-7" transform="translate(706.04 648.2) scale(1.13 1)">modules</text><text class="cls-7" transform="translate(443.95 650.02) scale(1.13 1)">Export EM-tensors/DC-params </text><line class="cls-59" x1="1014.88" y1="291.67" x2="1014.88" y2="304.45"/><polygon class="cls-17" points="1011.97 302.47 1014.88 313.31 1017.78 302.47 1011.97 302.47"/><line class="cls-59" x1="1014.88" y1="319.85" x2="1014.88" y2="333.94"/><polygon class="cls-17" points="1011.97 321.83 1014.88 310.99 1017.78 321.83 1011.97 321.83"/><line class="cls-59" x1="1201.85" y1="290.44" x2="1201.85" y2="303.21"/><polygon class="cls-17" points="1198.94 301.23 1201.85 312.07 1204.75 301.23 1198.94 301.23"/><line class="cls-59" x1="1201.85" y1="318.61" x2="1201.85" y2="332.7"/><polygon class="cls-17" points="1198.94 320.6 1201.85 309.75 1204.75 320.6 1198.94 320.6"/><line class="cls-59" x1="1097.71" y1="595.68" x2="1113.24" y2="595.68"/><polygon class="cls-17" points="1111.26 598.58 1122.1 595.68 1111.26 592.77 1111.26 598.58"/><line class="cls-59" x1="1128.34" y1="595.68" x2="1145.35" y2="595.68"/><polygon class="cls-17" points="1130.32 598.58 1119.48 595.68 1130.32 592.77 1130.32 598.58"/><line class="cls-59" x1="1106.56" y1="244.92" x2="1106.56" y2="309.24"/><polygon class="cls-17" points="1103.65 307.26 1106.56 318.1 1109.46 307.26 1103.65 307.26"/><line class="cls-59" x1="1106.56" y1="319.12" x2="1106.56" y2="387.88"/><polygon class="cls-17" points="1103.65 321.1 1106.56 310.26 1109.46 321.1 1103.65 321.1"/><line class="cls-59" x1="1000.58" y1="296.78" x2="1000.58" y2="325.93"/><polygon class="cls-17" points="997.67 298.76 1000.58 287.92 1003.48 298.76 997.67 298.76"/><polygon class="cls-17" points="997.67 323.95 1000.58 334.79 1003.48 323.95 997.67 323.95"/><path class="cls-30" d="M1269.6,350.21" transform="translate(-65.13 -21.5)"/><path class="cls-30" d="M1269.6,327.26" transform="translate(-65.13 -21.5)"/><line class="cls-59" x1="1182.82" y1="294.88" x2="1182.82" y2="324.03"/><polygon class="cls-17" points="1179.91 296.86 1182.82 286.02 1185.72 296.86 1179.91 296.86"/><polygon class="cls-17" points="1179.91 322.05 1182.82 332.89 1185.72 322.05 1179.91 322.05"/><line class="cls-59" x1="1093.53" y1="252.25" x2="1093.53" y2="382.26"/><polygon class="cls-17" points="1090.63 254.24 1093.53 243.39 1096.43 254.24 1090.63 254.24"/><polygon class="cls-17" points="1090.63 380.28 1093.53 391.12 1096.43 380.28 1090.63 380.28"/><line class="cls-31" x1="865.98" y1="313.46" x2="1269.28" y2="313.46"/><path class="cls-28" d="M1330.82,335l-4.38-7.2.24-.17,11.75,4.67,12.28,2.7-12.28,2.7-11.75,4.67-.24-.12Z" transform="translate(-65.13 -21.5)"/><rect class="cls-60" x="573.93" y="4.25" width="43.33" height="43.33" rx="21.66"/><path class="cls-61" d="M681.31,52.79c-.58-.39-4.24,6.92-11.76,8.37a16.44,16.44,0,0,1-7.11-.17c-4.15-1-6.1-3.37-6.41-2.54-.38,1,1.89,2.12,1.46,3.53-.38,1.22-1.11,2.8-5.5,1-7.78-3.24-8.48-3.37-8.56-3.27-.28.4,5.8,8.07,16,8.7a22.68,22.68,0,0,0,10.09-1.72C678.69,62.57,682,53.24,681.31,52.79Z" transform="translate(-65.13 -21.5)"/><path class="cls-62" d="M660.46,36.81a.36.36,0,0,0-.13,0h0C654.66,44.09,655,47,655,47a7,7,0,0,0,2.28,4.66c1.74,1.49,4.82,2.45,6.83,1.15,1.77-1.15,2-3.37,2.06-4.75C666.73,41.42,660.55,36.81,660.46,36.81Z" transform="translate(-65.13 -21.5)"/><polyline class="cls-63" points="647.23 36.36 624.98 45.88 795.52 45.88 768.75 35.8"/><text class="cls-64" transform="translate(644.42 41.9)">watex</text></svg>